External Loads File
version=1
nRows=39
nColumns=13
Range=5.000000e-03-10 seconds
endheader
time 	forceRightX 	forceRightY 	forceRightZ 	pointRightX 	pointRightY 	pointRightZ 	forceLeftX 	forceLeftY 	forceLeftZ 	pointLeftX 	pointLeftY 	pointLeftZ 		
5.005000 159.431246 156.877023 -0.000000 0.176449 0.177760 -0.139820 -163.323348 22.391884 -0.000000 0.392957 0.459372 -0.374173
5.010000 143.076037 130.576662 -0.000000 0.171034 0.183374 -0.140043 -178.986660 57.809371 -0.000000 0.397510 0.451820 -0.375032
5.015000 127.951435 107.186787 -0.000000 0.166058 0.189484 -0.140226 -197.873354 98.284093 -0.000000 0.401709 0.443903 -0.375709
5.020000 114.220057 86.794883 -0.000000 0.161432 0.195853 -0.140501 -220.004513 143.440615 -0.000000 0.405389 0.435644 -0.376123
5.025000 102.024262 69.187755 -0.000000 0.157335 0.202747 -0.140773 -245.233485 192.730158 -0.000000 0.408645 0.426970 -0.376249
5.030000 91.323334 54.085560 -0.000000 0.153597 0.210105 -0.141156 -273.185312 245.362850 -0.000000 0.411646 0.417884 -0.376221
5.035000 81.891119 41.293140 -0.000000 0.150313 0.217712 -0.141629 -303.479487 300.117032 -0.000000 0.414382 0.408301 -0.375897
5.040000 73.473329 30.605468 -0.000000 0.147554 0.225750 -0.142070 -335.409917 355.833922 -0.000000 0.416777 0.398327 -0.375674
5.045000 65.771551 21.924632 -0.000000 0.145297 0.234010 -0.142601 -368.159019 411.300527 -0.000000 0.418987 0.388046 -0.375117
5.050000 58.516649 15.135255 -0.000000 0.143553 0.242774 -0.142394 -400.267446 465.913218 -0.000000 0.421053 0.377492 -0.374298
5.055000 51.424261 10.324565 -0.000000 0.142413 0.251611 -0.142118 -431.642600 518.174476 -0.000000 0.422450 0.366769 -0.373967
5.060000 44.332577 7.354892 -0.000000 0.141862 0.260777 -0.141831 -460.512118 568.531401 -0.000000 0.423273 0.355724 -0.373755
5.065000 37.141841 6.246026 -0.000000 0.141954 0.270122 -0.141570 -486.480087 616.802104 -0.000000 0.423551 0.344557 -0.373556
5.070000 29.911990 6.977580 -0.000000 0.142547 0.279667 -0.141336 -508.737793 663.658782 -0.000000 0.423264 0.333251 -0.373476
5.075000 22.846029 9.584592 -0.000000 0.143740 0.289233 -0.141135 -527.798835 709.193192 -0.000000 0.422302 0.321976 -0.373459
5.080000 16.276010 13.982246 -0.000000 0.145356 0.299054 -0.140855 -542.462461 754.875266 -0.000000 0.420901 0.310695 -0.373139
5.085000 10.539842 20.009716 -0.000000 0.147643 0.308864 -0.140788 -552.625737 800.625673 -0.000000 0.418687 0.299548 -0.373226
5.090000 5.914352 27.263306 -0.000000 0.149811 0.318656 -0.141575 -556.426773 846.346981 -0.000000 0.415989 0.288623 -0.373640
5.095000 2.553444 35.130013 -0.000000 0.153135 0.328554 -0.141625 -550.878907 891.620780 -0.000000 0.412790 0.278015 -0.373372
5.100000 0.439591 42.879085 -0.000000 0.157143 0.338514 -0.141907 -533.387263 935.367981 -0.000000 0.408897 0.267585 -0.373195
5.105000 -0.725084 49.778828 -0.000000 0.161409 0.348413 -0.142188 -504.285792 974.963767 -0.000000 0.404400 0.257473 -0.373309
5.110000 -1.339394 55.192958 -0.000000 0.166268 0.358270 -0.142354 -463.514475 1008.458773 -0.000000 0.399424 0.247691 -0.373122
5.115000 -1.811038 58.624186 -0.000000 0.171690 0.368266 -0.142328 -410.646948 1034.293760 -0.000000 0.393855 0.238131 -0.372949
5.120000 -2.650132 59.724921 -0.000000 0.177617 0.378381 -0.142488 -347.554989 1050.227282 -0.000000 0.387706 0.228843 -0.372701
5.125000 -4.457246 58.337202 -0.000000 0.184108 0.388174 -0.142380 -279.105430 1053.917826 -0.000000 0.381177 0.220062 -0.372691
5.130000 -7.587359 54.535353 -0.000000 0.190869 0.397547 -0.142497 -208.772033 1044.817035 -0.000000 0.374133 0.211825 -0.372696
5.135000 -12.098185 48.605973 -0.000000 0.198207 0.406767 -0.142261 -138.196370 1023.729378 -0.000000 0.366941 0.203945 -0.372624
5.140000 -17.941674 40.951067 -0.000000 0.205903 0.415987 -0.142232 -70.101631 991.914502 -0.000000 0.359336 0.196649 -0.372601
5.145000 -24.919091 32.055917 -0.000000 0.214035 0.424768 -0.142083 -6.683190 951.377051 -0.000000 0.351189 0.189896 -0.372800
5.150000 -32.720281 22.497275 -0.000000 0.222501 0.432958 -0.142133 49.694621 904.713282 -0.000000 0.342757 0.183655 -0.372940
5.155000 -40.858647 13.002308 -0.000000 0.231278 0.441063 -0.141852 98.906371 854.790253 -0.000000 0.334041 0.178206 -0.373111
5.160000 -48.797490 4.266076 -0.000000 0.240156 0.447878 -0.141566 140.210714 804.382602 -0.000000 0.324931 0.173006 -0.373332
5.165000 -55.966106 -3.139638 -0.000000 0.248814 0.454162 -0.142111 173.497468 755.900913 -0.000000 0.315631 0.168536 -0.373609
5.170000 -61.875431 -8.649906 -0.000000 0.257770 0.459809 -0.142199 201.309112 710.542556 -0.000000 0.306116 0.164675 -0.373869
5.175000 -66.199178 -11.949325 -0.000000 0.267292 0.464862 -0.142193 225.155715 668.771836 -0.000000 0.296435 0.161331 -0.374223
5.180000 -68.709779 -13.231880 -0.000000 0.276366 0.469071 -0.141994 243.634994 631.325982 -0.000000 0.286584 0.158606 -0.374641
5.185000 -69.408615 -12.452691 -0.000000 0.285833 0.472599 -0.141768 259.339032 597.038935 -0.000000 0.276596 0.156629 -0.375059
5.190000 -68.388901 -9.982383 -0.000000 0.295201 0.475265 -0.141534 271.424667 565.615027 -0.000000 0.266736 0.155275 -0.375375
5.195000 -65.923256 -5.917826 -0.000000 0.304640 0.477294 -0.141271 280.988072 535.723583 -0.000000 0.256825 0.154675 -0.375698
